<?xml version="1.0" encoding="utf-8"?>
<!-- Generator: Adobe Illustrator 15.0.2, SVG Export Plug-In . SVG Version: 6.00 Build 0)  -->
<!DOCTYPE svg PUBLIC "-//W3C//DTD SVG 1.1//EN" "http://www.w3.org/Graphics/SVG/1.1/DTD/svg11.dtd">
<svg version="1.1" id="Layer_1" xmlns="http://www.w3.org/2000/svg" xmlns:xlink="http://www.w3.org/1999/xlink" x="0px" y="0px"
	 width="14.369px" height="12.861px" viewBox="0 0 14.369 12.861" enable-background="new 0 0 14.369 12.861" xml:space="preserve">
<path fill="#FFFFFF" d="M14.369,1.391c-0.529,0.236-1.097,0.396-1.693,0.468c0.609-0.368,1.076-0.949,1.296-1.643
	c-0.57,0.34-1.2,0.587-1.872,0.721C11.562,0.361,10.796,0,9.948,0C8.32,0,7,1.329,7,2.967c0,0.233,0.026,0.46,0.077,0.677
	C4.626,3.521,2.454,2.339,1,0.543C0.747,0.982,0.601,1.492,0.601,2.036c0,1.029,0.52,1.938,1.312,2.47
	C1.43,4.49,0.975,4.357,0.577,4.134c0,0.013,0,0.024,0,0.037c0,1.438,1.016,2.638,2.364,2.91C2.695,7.15,2.434,7.186,2.165,7.186
	c-0.19,0-0.375-0.018-0.555-0.054c0.375,1.18,1.464,2.038,2.754,2.062c-1.009,0.796-2.28,1.271-3.661,1.271
	c-0.238,0-0.472-0.014-0.703-0.042c1.304,0.842,2.854,1.334,4.519,1.334c5.422,0,8.387-4.522,8.387-8.444
	c0-0.128-0.003-0.256-0.009-0.384C13.474,2.51,13.973,1.987,14.369,1.391z"/>
</svg>
