<?xml version="1.0" encoding="utf-8"?>
<!-- Generator: Adobe Illustrator 17.0.2, SVG Export Plug-In . SVG Version: 6.00 Build 0)  -->
<!DOCTYPE svg PUBLIC "-//W3C//DTD SVG 1.1//EN" "http://www.w3.org/Graphics/SVG/1.1/DTD/svg11.dtd">
<svg version="1.1" id="Layer_1" xmlns="http://www.w3.org/2000/svg" xmlns:xlink="http://www.w3.org/1999/xlink" x="0px" y="0px"
	 width="200px" height="55px" viewBox="0 0 200 55" enable-background="new 0 0 200 55" xml:space="preserve">
<g>
	<path fill="#FFFFFF" d="M5.529,16.588h5.06c4.257,0,6.46,0.977,6.46,4.018c0,3.824-3.76,4.276-6.478,4.276H5.529V16.588z M0,29.49
		h10.653c5.603,0,11.658-2.156,11.658-8.479c0-3.732-2.672-6.617-6.387-7.022v-0.083c3.05-0.903,5.133-3.308,5.133-6.598
		C21.058,2.009,16.459,0,11.99,0H0V29.49z M5.529,4.608H9.87c3.972,0,5.926,1.207,5.926,3.714c0,2.184-1.751,3.659-5.262,3.659
		H5.529V4.608z"/>
	<rect x="24.883" y="0" fill="#FFFFFF" width="5.529" height="29.49"/>
	<path fill="#FFFFFF" d="M34.117,19.454c0,6.202,4.847,10.349,10.911,10.349c6.055,0,10.902-4.147,10.902-10.349
		S51.083,9.096,45.028,9.096C38.964,9.096,34.117,13.252,34.117,19.454z M39.13,19.454c0-3.087,2.212-5.917,5.898-5.917
		c3.668,0,5.889,2.829,5.889,5.917c0,3.078-2.221,5.907-5.889,5.907C41.342,25.362,39.13,22.533,39.13,19.454z"/>
	<path fill="#FFFFFF" d="M58.197,19.454c0,6.202,4.848,10.349,10.902,10.349s10.902-4.147,10.902-10.349S75.153,9.096,69.099,9.096
		S58.197,13.252,58.197,19.454z M63.211,19.454c0-3.087,2.212-5.917,5.889-5.917s5.889,2.829,5.889,5.917
		c0,3.078-2.212,5.907-5.889,5.907C65.423,25.362,63.211,22.533,63.211,19.454z"/>
	<path fill="#FFFFFF" d="M82.02,9.216h5.529v3.456h0.083c0.876-1.843,3.078-3.576,6.424-3.576c3.087,0,5.225,1.198,6.267,3.658
		c1.466-2.506,3.714-3.658,6.728-3.658c5.345,0,7.225,3.742,7.225,8.46V29.49h-5.529V18.32c0-2.47-0.498-4.783-3.465-4.783
		c-3.134,0-3.908,2.544-3.908,5.087V29.49h-5.529V17.74c0-2.424-1.539-4.202-3.963-4.202c-3.299,0-4.332,2.378-4.332,5.013V29.49
		h-5.53V9.216z"/>
	<path fill="#FFFFFF" d="M117.04,29.49h5.529v-2.765h0.083c1.466,2.378,4.507,3.447,7.308,3.447c6.184,0,9.898-4.885,9.898-10.718
		c0-5.834-3.972-10.358-9.695-10.358c-3.76,0-6.424,1.732-7.465,3.004h-0.129V0h-5.529V29.49z M134.845,19.454
		c0,3.078-2.212,5.907-5.888,5.907c-3.677,0-5.889-2.829-5.889-5.907c0-3.087,2.212-5.917,5.889-5.917
		C132.633,13.538,134.845,16.367,134.845,19.454z"/>
	<path fill="#FFFFFF" d="M162.436,21.178v-1.355c0-6.857-3.806-10.727-9.409-10.727c-6.055,0-10.902,4.156-10.902,10.358
		s4.847,10.349,10.902,10.349c3.18,0,6.147-1.115,8.488-3.944l-3.594-2.672c-1.253,1.521-2.884,2.672-5.391,2.672
		c-2.801,0-5.059-1.769-5.391-4.682h15.297V21.178z M147.139,17.482c0.377-2.839,2.212-4.682,5.179-4.682
		c3.134,0,5.06,1.806,5.097,4.682H147.139z"/>
	<path fill="#FFFFFF" d="M164.962,9.594h5.751v3.124h0.092c1.078-2.258,3.299-3.622,5.926-3.622c0.627,0,1.216,0.129,1.797,0.295
		v4.765c-0.83-0.212-1.631-0.369-2.424-0.369c-4.718,0-5.391,3.898-5.391,4.967v10.552h-5.751L164.962,9.594L164.962,9.594z"/>
	<path fill="#FFFFFF" d="M195.374,9.216v2.958l0.221,0.378c-1.466-2.387-4.092-3.456-6.894-3.456c-6.184,0-9.907,4.525-9.907,10.358
		c0,5.585,3.972,10.1,9.99,10.1c2.506,0,5.041-0.94,6.506-2.875h0.083v1.437c0,3.908-1.502,6.617-6.35,6.617
		c-2.802,0-4.838-1.032-6.838-2.839l-3.014,4.027c2.839,2.47,5.769,3.244,9.483,3.244c7.815,0,11.326-4.516,11.326-11.621V9.216
		H195.374z M189.743,13.538c3.64,0,5.935,2.378,5.935,5.788c0,3.29-2.258,5.796-5.972,5.796c-3.382,0-5.898-2.589-5.898-5.713
		C183.808,15.916,186.232,13.538,189.743,13.538z"/>
</g>
<g>
	<path fill="#FFFFFF" d="M0.1,49.883V34.85h10.3v2.321H2.737v3.898h7.505v2.322H2.737v4.169H10.4v2.321H0.1z"/>
	<path fill="#FFFFFF" d="M20.387,49.883V48.44c-0.789,0.879-2.141,1.713-3.854,1.713c-2.344,0-3.493-1.217-3.493-3.448v-7.708h2.366
		v6.852c0,1.69,0.856,2.209,2.186,2.209c1.194,0,2.231-0.677,2.795-1.42v-7.641h2.366v10.886H20.387z"/>
	<path fill="#FFFFFF" d="M25.822,49.883V38.997h2.366v1.601c0.812-1.037,2.119-1.849,3.539-1.849v2.345
		c-0.203-0.046-0.451-0.068-0.744-0.068c-0.991,0-2.321,0.677-2.794,1.442v7.415H25.822z"/>
	<path fill="#FFFFFF" d="M32.968,44.429c0-3.11,2.141-5.702,5.589-5.702c3.493,0,5.612,2.592,5.612,5.702
		c0,3.133-2.119,5.725-5.612,5.725C35.109,50.153,32.968,47.561,32.968,44.429z M41.713,44.429c0-1.916-1.127-3.605-3.155-3.605
		c-2.006,0-3.133,1.689-3.133,3.605c0,1.938,1.127,3.629,3.133,3.629C40.586,48.057,41.713,46.367,41.713,44.429z"/>
	<path fill="#FFFFFF" d="M48.928,48.373v5.656h-2.366V38.997h2.366v1.487c0.812-1.081,2.073-1.758,3.493-1.758
		c2.817,0,4.823,2.119,4.823,5.702c0,3.584-2.006,5.725-4.823,5.725C51.046,50.153,49.807,49.545,48.928,48.373z M54.788,44.429
		c0-2.096-1.195-3.605-3.065-3.605c-1.104,0-2.276,0.653-2.794,1.465v4.305c0.519,0.788,1.69,1.465,2.794,1.465
		C53.593,48.057,54.788,46.547,54.788,44.429z"/>
	<path fill="#FFFFFF" d="M58.916,44.429c0-3.155,2.299-5.702,5.521-5.702c3.268,0,5.364,2.502,5.364,5.928v0.563h-8.406
		c0.18,1.646,1.42,2.997,3.471,2.997c1.06,0,2.321-0.428,3.088-1.194l1.082,1.555c-1.082,1.037-2.682,1.578-4.417,1.578
		C61.35,50.153,58.916,47.877,58.916,44.429z M64.437,40.665c-2.028,0-2.952,1.555-3.065,2.885h6.13
		C67.457,42.265,66.578,40.665,64.437,40.665z"/>
</g>
</svg>
