<?xml version="1.0" encoding="utf-8"?>
<!-- Generator: Adobe Illustrator 17.0.2, SVG Export Plug-In . SVG Version: 6.00 Build 0)  -->
<!DOCTYPE svg PUBLIC "-//W3C//DTD SVG 1.1//EN" "http://www.w3.org/Graphics/SVG/1.1/DTD/svg11.dtd">
<svg version="1.1" id="Layer_1" xmlns="http://www.w3.org/2000/svg" xmlns:xlink="http://www.w3.org/1999/xlink" x="0px" y="0px"
	 width="200px" height="55px" viewBox="0 0 200 55" enable-background="new 0 0 200 55" xml:space="preserve">
<g>
	<path fill-rule="evenodd" clip-rule="evenodd" fill="#FFFFFF" d="M5.529,16.588h5.06c4.257,0,6.46,0.977,6.46,4.018
		c0,3.824-3.76,4.276-6.478,4.276H5.529V16.588z M0,29.49h10.653c5.603,0,11.658-2.156,11.658-8.479
		c0-3.732-2.672-6.617-6.387-7.022v-0.083c3.05-0.903,5.133-3.308,5.133-6.598C21.058,2.009,16.459,0,11.99,0H0V29.49z M5.529,4.608
		H9.87c3.972,0,5.926,1.207,5.926,3.714c0,2.184-1.751,3.659-5.262,3.659H5.529V4.608z"/>
	<rect x="24.883" fill-rule="evenodd" clip-rule="evenodd" fill="#FFFFFF" width="5.529" height="29.49"/>
	<path fill-rule="evenodd" clip-rule="evenodd" fill="#FFFFFF" d="M34.117,19.454c0,6.202,4.847,10.349,10.911,10.349
		c6.055,0,10.902-4.147,10.902-10.349c0-6.202-4.847-10.358-10.902-10.358C38.964,9.096,34.117,13.252,34.117,19.454z M39.13,19.454
		c0-3.087,2.212-5.917,5.898-5.917c3.668,0,5.889,2.829,5.889,5.917c0,3.078-2.221,5.907-5.889,5.907
		C41.342,25.362,39.13,22.533,39.13,19.454z"/>
	<path fill-rule="evenodd" clip-rule="evenodd" fill="#FFFFFF" d="M58.197,19.454c0,6.202,4.848,10.349,10.902,10.349
		s10.902-4.147,10.902-10.349c0-6.202-4.848-10.358-10.902-10.358S58.197,13.252,58.197,19.454z M63.211,19.454
		c0-3.087,2.212-5.917,5.889-5.917c3.677,0,5.889,2.829,5.889,5.917c0,3.078-2.212,5.907-5.889,5.907
		C65.423,25.362,63.211,22.533,63.211,19.454z"/>
	<path fill-rule="evenodd" clip-rule="evenodd" fill="#FFFFFF" d="M82.02,9.216h5.529v3.456h0.083
		c0.876-1.843,3.078-3.576,6.424-3.576c3.087,0,5.225,1.198,6.267,3.658c1.466-2.506,3.714-3.658,6.728-3.658
		c5.345,0,7.225,3.742,7.225,8.46V29.49h-5.529v-11.17c0-2.47-0.498-4.783-3.465-4.783c-3.134,0-3.908,2.544-3.908,5.087V29.49
		h-5.529V17.74c0-2.424-1.539-4.202-3.963-4.202c-3.299,0-4.332,2.378-4.332,5.013V29.49H82.02V9.216z"/>
	<path fill-rule="evenodd" clip-rule="evenodd" fill="#FFFFFF" d="M117.04,29.49h5.529v-2.765h0.083
		c1.466,2.378,4.507,3.447,7.308,3.447c6.184,0,9.898-4.885,9.898-10.718c0-5.834-3.972-10.358-9.695-10.358
		c-3.76,0-6.424,1.732-7.465,3.004h-0.129V0h-5.529V29.49z M134.845,19.454c0,3.078-2.212,5.907-5.888,5.907
		c-3.677,0-5.889-2.829-5.889-5.907c0-3.087,2.212-5.917,5.889-5.917C132.633,13.538,134.845,16.367,134.845,19.454z"/>
	<path fill-rule="evenodd" clip-rule="evenodd" fill="#FFFFFF" d="M162.436,21.178v-1.355c0-6.857-3.806-10.727-9.409-10.727
		c-6.055,0-10.902,4.156-10.902,10.358c0,6.202,4.847,10.349,10.902,10.349c3.18,0,6.147-1.115,8.488-3.944l-3.594-2.672
		c-1.253,1.521-2.884,2.672-5.391,2.672c-2.801,0-5.059-1.769-5.391-4.682H162.436z M147.139,17.482
		c0.377-2.839,2.212-4.682,5.179-4.682c3.134,0,5.06,1.806,5.097,4.682H147.139z"/>
	<path fill-rule="evenodd" clip-rule="evenodd" fill="#FFFFFF" d="M164.962,9.594h5.751v3.124h0.092
		c1.078-2.258,3.299-3.622,5.926-3.622c0.627,0,1.216,0.129,1.797,0.295v4.765c-0.83-0.212-1.631-0.369-2.424-0.369
		c-4.718,0-5.391,3.898-5.391,4.967v10.552h-5.751V9.594z"/>
	<path fill-rule="evenodd" clip-rule="evenodd" fill="#FFFFFF" d="M195.374,9.216v2.958l0.221,0.378
		c-1.466-2.387-4.092-3.456-6.894-3.456c-6.184,0-9.907,4.525-9.907,10.358c0,5.585,3.972,10.1,9.99,10.1
		c2.506,0,5.041-0.94,6.506-2.875h0.083v1.437c0,3.908-1.502,6.617-6.35,6.617c-2.802,0-4.838-1.032-6.838-2.839l-3.014,4.027
		c2.839,2.47,5.769,3.244,9.483,3.244c7.815,0,11.326-4.516,11.326-11.621V9.216H195.374z M189.743,13.538
		c3.64,0,5.935,2.378,5.935,5.788c0,3.29-2.258,5.796-5.972,5.796c-3.382,0-5.898-2.589-5.898-5.713
		C183.808,15.916,186.232,13.538,189.743,13.538z"/>
</g>
<g>
	<path fill="#FFFFFF" d="M12.568,50.204l-1.145-2.99H4.275l-1.145,2.99H0.023l6.121-15.582h3.411l6.121,15.582H12.568z M7.85,37.379
		l-2.804,7.429h5.607L7.85,37.379z"/>
	<path fill="#FFFFFF" d="M16.328,48.732l1.121-1.775c0.794,0.817,2.36,1.588,3.832,1.588s2.219-0.631,2.219-1.519
		c0-2.219-6.821-0.631-6.821-4.953c0-1.845,1.588-3.434,4.438-3.434c1.916,0,3.364,0.678,4.392,1.589l-1.028,1.729
		c-0.677-0.771-1.939-1.355-3.34-1.355c-1.285,0-2.103,0.584-2.103,1.378c0,2.009,6.821,0.514,6.821,5
		c0,1.985-1.659,3.504-4.695,3.504C19.248,50.484,17.496,49.877,16.328,48.732z"/>
	<path fill="#FFFFFF" d="M28.03,36.024c0-0.841,0.701-1.519,1.519-1.519c0.841,0,1.519,0.677,1.519,1.519
		c0,0.841-0.677,1.519-1.519,1.519C28.731,37.542,28.03,36.865,28.03,36.024z M28.333,50.204V38.92h2.453v11.284H28.333z"/>
	<path fill="#FFFFFF" d="M40.854,50.204v-1.215c-0.841,0.958-2.149,1.495-3.644,1.495c-1.846,0-3.925-1.238-3.925-3.738
		c0-2.593,2.079-3.667,3.925-3.667c1.518,0,2.827,0.49,3.644,1.448v-1.682c0-1.308-1.075-2.103-2.64-2.103
		c-1.262,0-2.359,0.467-3.341,1.425l-1.004-1.706c1.308-1.238,2.943-1.822,4.742-1.822c2.5,0,4.696,1.051,4.696,4.088v7.476H40.854z
		 M40.854,47.634v-1.705c-0.561-0.771-1.612-1.168-2.687-1.168c-1.378,0-2.406,0.794-2.406,2.033c0,1.215,1.028,2.009,2.406,2.009
		C39.243,48.802,40.294,48.405,40.854,47.634z"/>
	</g>
</svg>
